<?xml version="1.0" standalone="no"?>
<!DOCTYPE svg PUBLIC "-//W3C//DTD SVG 20010904//EN"
 "http://www.w3.org/TR/2001/REC-SVG-20010904/DTD/svg10.dtd">
<svg version="1.0" xmlns="http://www.w3.org/2000/svg"
 width="553.000000pt" height="553.000000pt" viewBox="0 0 553.000000 553.000000"
 preserveAspectRatio="xMidYMid meet">
<metadata>
Created by potrace 1.11, written by Peter Selinger 2001-2013
</metadata>
<g transform="translate(0.000000,553.000000) scale(0.100000,-0.100000)"
fill="#000000" stroke="none">
<path d="M5438 3995 c-3 -3 -14 -7 -24 -9 -27 -6 -86 -21 -194 -51 -52 -14
-102 -27 -110 -29 -15 -4 -125 -34 -325 -87 -60 -17 -118 -32 -128 -34 -9 -2
-21 -6 -25 -9 -5 -3 -22 -8 -38 -11 -16 -3 -63 -14 -104 -25 -41 -12 -82 -23
-90 -25 -8 -2 -42 -11 -75 -20 -33 -9 -67 -18 -75 -20 -8 -2 -51 -13 -95 -25
-446 -120 -600 -161 -614 -164 -9 -2 -23 -6 -31 -9 -8 -3 -48 -13 -87 -23 -40
-10 -73 -20 -73 -23 0 -3 31 -46 68 -96 106 -142 192 -261 192 -267 0 -3 -62
-46 -137 -95 -185 -120 -331 -207 -576 -342 -74 -41 -373 -190 -457 -229 -129
-58 -323 -142 -345 -148 -5 -1 -44 -16 -85 -32 -140 -55 -428 -149 -540 -177
-8 -2 -35 -8 -60 -15 -25 -6 -54 -12 -65 -14 -11 -2 -51 -11 -90 -19 -38 -8
-86 -18 -105 -21 -19 -3 -46 -8 -60 -11 -14 -3 -48 -7 -76 -9 -28 -3 -67 -7
-85 -10 -63 -11 -194 -18 -324 -17 -147 1 -202 6 -330 26 -136 22 -148 25
-178 37 -15 6 -30 8 -33 6 -5 -6 67 -34 106 -42 14 -3 66 -16 117 -30 102 -27
130 -32 308 -53 89 -10 465 -10 570 0 168 17 198 21 345 47 151 25 160 27 260
51 47 11 92 22 100 24 38 8 153 39 230 62 47 13 90 26 95 27 79 17 663 231
755 276 8 4 26 12 40 18 14 5 51 21 82 36 31 14 59 26 61 26 2 0 62 28 133 62
71 34 131 62 134 63 13 3 237 120 367 191 44 25 195 130 266 186 80 63 240
178 247 178 4 0 10 4 12 8 2 5 28 26 58 48 30 21 57 41 60 44 3 4 32 26 65 50
86 62 283 207 332 244 23 17 52 39 65 48 31 22 251 185 263 195 6 5 35 26 65
48 42 30 224 163 249 182 2 2 2 5 -1 8 -2 3 -7 3 -10 0z"/>
<path d="M5490 3919 c-14 -11 -33 -27 -43 -35 -9 -7 -21 -14 -26 -14 -5 0 -11
-4 -13 -8 -1 -4 -25 -23 -53 -42 -27 -19 -52 -38 -55 -41 -3 -3 -48 -37 -100
-75 -52 -38 -102 -74 -110 -81 -8 -7 -54 -41 -101 -75 -117 -85 -382 -280
-394 -290 -12 -10 -321 -237 -520 -383 -75 -55 -154 -113 -175 -130 -87 -68
-410 -268 -652 -403 -129 -72 -474 -246 -583 -294 -229 -101 -416 -174 -595
-233 -80 -26 -152 -50 -160 -53 -8 -3 -20 -6 -26 -7 -7 -2 -52 -14 -100 -28
-118 -33 -321 -77 -429 -92 -11 -2 -33 -6 -50 -8 -28 -5 -122 -15 -210 -23
-110 -10 -403 -3 -487 11 -24 4 -54 9 -68 10 -31 4 -176 34 -196 42 -7 3 -14
3 -14 0 0 -3 33 -15 73 -27 39 -12 83 -25 97 -30 62 -21 217 -50 360 -67 36
-4 164 -7 285 -8 229 0 350 8 485 31 14 2 50 6 80 10 30 3 58 8 61 10 4 2 26
6 50 9 93 12 386 81 559 132 262 77 757 255 772 277 4 6 8 8 8 4 0 -6 67 21
270 111 106 47 482 232 490 240 3 3 30 18 60 34 30 15 68 35 83 45 34 20 23
32 184 -191 59 -81 112 -146 117 -144 6 2 29 35 53 73 23 38 47 74 53 81 5 7
10 17 10 23 0 5 3 10 8 10 4 0 12 10 18 23 6 12 93 153 194 312 100 160 192
306 203 325 12 19 25 37 29 38 4 2 8 8 8 12 0 5 27 51 60 102 32 51 71 113 86
138 37 61 208 332 253 400 19 30 41 64 47 75 6 11 39 64 73 118 34 55 61 100
59 102 -2 2 -14 -6 -28 -16z"/>
</g>
</svg>
